HIERARCHY
ROOT hip
{
	OFFSET 0.000000 0.000000 0.000000 
	CHANNELS 6 Xposition Yposition Zposition Xrotation Zrotation Yrotation
	JOINT abdomen
	{
		OFFSET 0.000000 3.402643 0.000000 
		CHANNELS 3 Xrotation Zrotation Yrotation
		JOINT chest
		{
			OFFSET 0.000000 8.438565 -0.680529 
			CHANNELS 3 Xrotation Zrotation Yrotation
			JOINT neck
			{
				OFFSET 0.000000 10.207942 -0.272212 
				CHANNELS 3 Xrotation Zrotation Yrotation
				JOINT head
				{
					OFFSET 0.000000 3.130431 0.000000 
					CHANNELS 3 Xrotation Zrotation Yrotation
					End Site
					{
						OFFSET 0.000000 3.130435 0.000000 
					}
				}
			}
			JOINT lCollar
			{
				OFFSET 3.470700 6.669187 -0.816635 
				CHANNELS 3 Yrotation Zrotation Xrotation
				JOINT lShldr
				{
					OFFSET 3.198488 0.000000 0.000000 
					CHANNELS 3 Zrotation Yrotation Xrotation
					JOINT lForeArm
					{
						OFFSET 10.139888 0.000000 0.000000 
						CHANNELS 3 Yrotation Zrotation Xrotation
						JOINT lHand
						{
							OFFSET 8.370511 0.000000 0.000000 
							CHANNELS 3 Zrotation Yrotation Xrotation
							End Site
							{
								OFFSET 4.083176 0.000000 0.000000 
							}
						}
					}
				}
			}
			JOINT rCollar
			{
				OFFSET -3.470700 6.669187 -0.816635 
				CHANNELS 3 Yrotation Zrotation Xrotation
				JOINT rShldr
				{
					OFFSET -3.198488 0.000000 0.000000 
					CHANNELS 3 Zrotation Yrotation Xrotation
					JOINT rForeArm
					{
						OFFSET -10.139888 0.000000 0.000000 
						CHANNELS 3 Yrotation Zrotation Xrotation
						JOINT rHand
						{
							OFFSET -8.370511 0.000000 0.000000 
							CHANNELS 3 Zrotation Yrotation Xrotation
							End Site
							{
								OFFSET -4.083176 0.000000 0.000000 
							}
						}
					}
				}
			}
		}
	}
	JOINT lThigh
	{
		OFFSET 5.308129 -1.633274 1.361059 
		CHANNELS 3 Xrotation Zrotation Yrotation
		JOINT lShin
		{
			OFFSET -2.041588 -20.007561 0.000000 
			CHANNELS 3 Xrotation Zrotation Yrotation
			JOINT lFoot
			{
				OFFSET 0.000000 -19.190928 -1.224953 
				CHANNELS 3 Xrotation Yrotation Zrotation
				End Site
				{
					OFFSET 0.000000 -2.449906 4.627600 
				}
			}
		}
	}
	JOINT rThigh
	{
		OFFSET -5.308129 -1.633274 1.361059 
		CHANNELS 3 Xrotation Zrotation Yrotation
		JOINT rShin
		{
			OFFSET 2.041588 -20.007561 0.000000 
			CHANNELS 3 Xrotation Zrotation Yrotation
			JOINT rFoot
			{
				OFFSET 0.000000 -19.190928 -1.224953 
				CHANNELS 3 Xrotation Yrotation Zrotation
				End Site
				{
					OFFSET 0.000000 -2.449906 4.627600 
				}
			}
		}
	}
}
MOTION
Frames: 12
Frame Time: 0.033333
-0.732558 49.739880 0.057758 -3.681641 0.029236 1.511791 0.000000 0.000000 0.000000 0.751953 0.009765 1.523571 6.284766 -0.447470 1.807872 6.806611 0.331868 0.087245 0.970190 12.198957 -1.239248 1.392360 4.073623 -21.014221 -8.926716 -2.695439 2.588273 0.534579 1.347911 2.045942 -0.028859 -10.810545 -1.296578 -7.041395 -19.689688 -5.273340 7.756503 3.279116 2.606517 -9.998111 3.568943 6.379081 2.233744 8.959319 5.536242 12.731289 -3.294139 13.898536 -8.695385 0.361303 -4.766716 4.794841 -9.042948 -6.796256 8.649396 3.434988 2.651871 -7.676719 -0.349595 5.358803 
-0.744260 49.741135 0.056826 -3.750001 0.048724 1.490947 0.000000 0.000000 0.000000 0.781251 -0.087882 1.492927 6.425252 -0.384176 1.777143 6.787065 0.400189 0.153325 0.838676 12.388627 -1.135613 1.325736 4.260173 -20.911942 -8.936964 -2.714575 2.585391 0.760412 1.322385 1.544156 -0.033916 -10.663083 -1.202449 -7.138934 -19.698441 -5.366269 7.891694 3.199153 2.601592 -10.010211 3.460430 6.153491 2.330625 8.975686 5.607831 12.738169 -3.290019 13.781146 -8.718038 0.362806 -4.734046 4.978166 -9.000821 -6.784045 8.412434 3.433849 2.499391 -7.630619 -0.356028 5.333759 
-0.746275 49.746925 0.047211 -3.750002 0.058468 1.421949 0.000000 0.000000 0.000000 0.771487 -0.136706 1.511808 6.429330 -0.268821 1.727867 6.953114 0.204993 0.218703 0.792252 12.516477 -1.123600 1.156731 4.356566 -21.087328 -8.992319 -2.550712 2.578104 0.685618 1.268955 1.783439 -0.016590 -10.458158 -1.203173 -7.437181 -19.716106 -5.342337 7.930555 3.188607 2.601544 -9.886028 3.508146 6.423494 2.204877 8.970021 5.625686 12.953032 -3.280121 14.001375 -8.786619 0.367401 -4.625219 4.986451 -9.008101 -6.775261 8.374828 3.434605 2.691785 -7.620718 -0.336894 5.299545 
-0.746778 49.744534 0.038442 -3.710938 0.019490 1.434283 0.000000 0.000000 0.000000 0.751954 -0.078118 1.493102 6.358644 -0.354477 1.743215 7.275363 0.370994 0.186711 0.868350 12.495271 -1.171930 1.215507 4.210112 -21.073278 -8.827618 -2.621301 2.581917 0.805171 1.227254 1.981478 -0.063992 -10.525759 -1.229144 -7.468518 -19.638218 -5.233175 7.883823 3.295128 2.609842 -10.128001 3.462086 6.372273 2.030483 9.013239 5.607687 13.186737 -3.299617 13.875916 -8.912735 0.379968 -4.545596 4.909689 -8.991198 -6.752584 8.390419 3.403931 2.574404 -7.578287 -0.354415 5.355131 
-0.745898 49.739128 0.030084 -3.681642 0.058473 1.412253 0.000000 0.000000 0.000000 0.732424 -0.136708 1.531432 6.437179 -0.321986 1.758468 7.158191 0.234300 0.189401 0.936278 12.434461 -1.225243 1.354151 4.083942 -20.957735 -8.801344 -2.774935 2.590359 0.950346 1.245819 1.660208 -0.056660 -10.594633 -1.286207 -7.389431 -19.668074 -5.227337 7.883593 3.276330 2.602406 -10.285225 3.607837 6.335119 2.302305 8.997650 5.678447 12.630598 -3.319026 13.844253 -8.642788 0.353052 -4.791376 4.821453 -8.990829 -6.712085 8.430610 3.394315 2.410790 -7.625488 -0.338332 5.352542 
-0.750429 49.752846 0.030412 -3.691406 -0.019491 1.378211 0.000000 0.000000 0.000000 0.732422 -0.068354 1.503021 6.563823 -0.329541 1.775208 6.933588 0.156184 0.220056 0.996229 12.345078 -1.243554 1.239810 4.109699 -21.384081 -8.960731 -2.427377 2.566827 0.688277 1.386516 2.114670 -0.051250 -10.672867 -1.295894 -7.217407 -19.561186 -5.371661 7.824212 3.248530 2.607735 -10.278850 3.657224 6.316074 2.107979 9.048938 5.611600 12.981351 -3.269851 13.873571 -8.796670 0.353183 -4.599765 4.743742 -8.951609 -6.697010 8.604728 3.413457 2.667442 -7.549675 -0.340487 5.318225 
-0.755086 49.741390 0.029190 -3.789063 -0.009744 1.397128 0.000000 0.000000 0.000000 0.761720 -0.097648 1.492826 6.783540 -0.238261 1.647206 6.865226 -0.175700 0.288535 0.808356 12.437868 -1.158041 1.092571 4.187712 -21.421610 -8.880981 -2.352194 2.569040 0.676797 1.415174 2.720729 0.047649 -10.518124 -1.217430 -7.437023 -19.599039 -5.312548 7.805142 3.268349 2.606076 -10.304746 3.606486 6.265794 2.019047 9.054858 5.611296 13.363565 -3.319630 13.861688 -8.981000 0.359974 -4.523565 4.920658 -8.964348 -6.749558 8.514586 3.425877 2.710356 -7.610163 -0.343854 5.317596 
-0.753322 49.738247 0.024106 -3.730469 -0.009745 1.358057 0.000000 0.000000 0.000000 0.732424 -0.126943 1.512027 6.604988 -0.311734 1.779151 7.275387 0.126919 0.260729 0.880032 12.367111 -1.235387 1.141666 4.177985 -21.409241 -9.027745 -2.358877 2.565334 0.482817 1.560031 2.770719 0.040314 -10.606368 -1.294278 -7.318223 -19.599890 -5.298723 7.824936 3.277617 2.604302 -10.198730 3.633400 6.251582 2.098484 9.068827 5.642776 13.088408 -3.328363 13.899242 -8.842361 0.362242 -4.660639 4.900308 -8.942305 -6.727229 8.319602 3.406322 2.442591 -7.525694 -0.342080 5.359983 
-0.748918 49.751709 0.020822 -3.769531 0.009744 1.366546 0.000000 0.000000 0.000000 0.712894 -0.166003 1.501812 6.822404 -0.295010 1.687230 7.011719 0.029286 0.262858 0.785419 12.418000 -1.226901 0.854743 4.313221 -21.620317 -9.325837 -2.113497 2.556831 0.531389 1.562951 2.845903 0.093926 -10.509620 -1.295518 -7.396086 -19.579529 -5.372952 7.804661 3.248958 2.608358 -10.061400 3.633098 6.512276 2.098443 9.002201 5.587751 13.131592 -3.321046 13.916873 -8.873631 0.340462 -4.477581 4.841732 -9.011018 -6.783644 8.533800 3.435590 2.643972 -7.507620 -0.340435 5.339061 
-0.744260 49.748814 0.021942 -3.779297 0.029233 1.335960 0.000000 0.000000 0.000000 0.683599 -0.214828 1.501306 6.777812 -0.205504 1.635590 7.187490 -0.214778 0.337340 0.785074 12.486167 -1.254131 0.844271 4.503737 -21.055876 -9.487306 -2.386922 2.571702 0.768940 1.665320 2.079010 0.065631 -10.362616 -1.323410 -7.575874 -19.510315 -5.285994 7.835426 3.315593 2.609148 -10.037152 3.566249 6.386901 2.108178 8.970672 5.585154 13.128545 -3.319283 14.082791 -8.843104 0.360254 -4.521707 4.850508 -9.058884 -6.838611 8.500923 3.463606 2.672742 -7.517657 -0.335923 5.330565 
-0.745018 49.737614 0.017739 -3.837891 0.029231 1.335930 0.000000 0.000000 0.000000 0.722662 -0.224592 1.471738 6.747071 -0.295653 1.659966 7.333985 0.000000 0.322266 0.714664 12.351430 -1.209040 1.077679 4.434339 -21.140844 -9.185872 -2.451154 2.568538 0.537256 1.465471 2.006304 0.135165 -10.324541 -1.275600 -7.604990 -19.548981 -5.333556 7.844731 3.286884 2.602523 -9.920701 3.584069 6.412276 2.184745 8.977754 5.557116 13.081427 -3.300564 14.049094 -8.823134 0.370314 -4.667338 4.891974 -9.062756 -6.799623 8.604491 3.406533 2.764569 -7.636538 -0.362574 5.384464 
-0.744389 49.735855 0.020533 -3.867192 0.077947 1.342387 0.000000 0.000000 0.000000 0.722667 -0.312475 1.490146 6.678092 -0.311610 1.659174 7.490235 -0.019528 0.273814 0.787684 12.262034 -1.200095 1.224258 4.585735 -20.548443 -9.522976 -2.710523 2.590322 0.538490 1.768827 1.428453 0.144911 -10.432188 -1.262094 -7.548585 -19.559809 -5.170459 7.808030 3.402910 2.609596 -9.969825 3.443638 6.224382 2.343034 8.933728 5.594059 12.859015 -3.292106 14.026510 -8.716942 0.356460 -4.737009 4.975667 -9.065518 -6.831141 8.467737 3.442627 2.650051 -7.650907 -0.348160 5.316284 
